<?xml version="1.0" encoding="UTF-8" standalone="no"?>
<svg
   version="1.1"
   viewBox="0 0 97.6653 56.545002"
   fill="none"
   stroke="none"
   stroke-linecap="square"
   stroke-miterlimit="10"
   id="svg50"
   sodipodi:docname="imva_logo2.svg"
   width="97.665298"
   height="56.545002"
   inkscape:version="1.1.2 (0a00cf5339, 2022-02-04)"
   xmlns:inkscape="http://www.inkscape.org/namespaces/inkscape"
   xmlns:sodipodi="http://sodipodi.sourceforge.net/DTD/sodipodi-0.dtd"
   xmlns="http://www.w3.org/2000/svg"
   xmlns:svg="http://www.w3.org/2000/svg">
  <defs
     id="defs54" />
  <sodipodi:namedview
     id="namedview52"
     pagecolor="#ffffff"
     bordercolor="#666666"
     borderopacity="1.0"
     inkscape:pageshadow="2"
     inkscape:pageopacity="0.0"
     inkscape:pagecheckerboard="0"
     showgrid="false"
     inkscape:zoom="4.2091724"
     inkscape:cx="69.609883"
     inkscape:cy="27.915226"
     inkscape:window-width="1920"
     inkscape:window-height="1016"
     inkscape:window-x="0"
     inkscape:window-y="0"
     inkscape:window-maximized="1"
     inkscape:current-layer="svg50" />
  <clipPath
     id="g30728f58310_0_0.0">
    <path
       d="M 0,0 H 1280 V 720 H 0 Z"
       clip-rule="nonzero"
       id="path2" />
  </clipPath>
  <path
     fill="#b90320"
     d="M 1.308,32.87503 V 0.45316 h 5.75 v 32.42187 z m 42.7251,0.0156 H 38.455 L 35.0956,15.40625 28.5643,33.3125 h -2.0468 l -6.5313,-17.90625 -3.5,17.48438 H 10.9237 L 17.455,0.45313 h 3.0625 l 7.0156,21.84375 6.8594,-21.84375 h 3.0312 z M 59.6673,33.3125 H 56.4954 L 44.3704,0.45313 h 6.3281 l 7.5,21.90625 7.9375,-21.90625 h 6.1875 z M 91.3215,32.875 88.9465,26.29688 H 77.8372 L 75.5715,32.875 H 69.1809 L 82.1028,0 H 84.634 L 97.6653,32.875 Z M 83.3684,9.92188 79.4778,21.89063 h 7.7812 z"
     fill-rule="nonzero"
     id="path26" />
  <path
     fill="#ff0000"
     d="m 0,42.698489 v -7.054148 h 0.962367 v 7.054148 z m 5.668327,0 v -3.002586 q 0,-0.818009 -0.250185,-1.145214 -0.240638,-0.336831 -0.827666,-0.336831 -0.307958,0 -0.65441,0.192473 -0.336844,0.182853 -0.519647,0.461937 v 3.830221 H 2.502155 v -5.158288 h 0.625523 l 0.288741,0.664036 q 0.452266,-0.760273 1.472406,-0.760273 1.693766,0 1.693766,2.059466 v 3.195059 z M 8.21378,38.261979 H 7.617143 V 37.540201 H 8.21378 V 36.46235 l 0.914264,-0.346452 v 1.424303 h 1.414695 v 0.721778 H 9.128044 v 2.559897 q 0,0.65441 0.211752,0.933493 0.221298,0.269463 0.712121,0.269463 0.346452,0 0.721791,-0.182847 l 0.1347,0.808388 q -0.56775,0.144352 -1.241438,0.144352 -0.615915,0 -1.039357,-0.452309 Q 8.21378,41.88048 8.21378,41.187575 Z m 7.920297,1.943982 h -3.714706 q 0,0.904625 0.490761,1.395429 0.442719,0.423442 1.126016,0.423442 0.78911,0 1.308819,-0.461937 l 0.384947,0.664037 q -0.211752,0.211721 -0.644802,0.365699 -0.548534,0.202094 -1.222221,0.202094 -0.971976,0 -1.655272,-0.66403 -0.750615,-0.721778 -0.750615,-1.953608 0,-1.270325 0.769893,-2.040218 0.692905,-0.692905 1.645602,-0.692905 1.097129,0 1.722652,0.625542 0.606307,0.596668 0.606307,1.578282 0,0.307957 -0.06738,0.558173 z m -2.223083,-1.992103 q -0.606245,0 -1.020079,0.394573 -0.394555,0.375321 -0.452328,0.933494 h 2.858215 q 0,-0.548547 -0.346452,-0.923873 -0.384947,-0.404194 -1.039356,-0.404194 z m 3.325016,3.021833 V 35.43262 h 0.914203 v 5.649092 q 0,0.413821 0.240638,0.65441 0.240576,0.240594 0.625523,0.240594 v 0.818009 q -1.780364,0 -1.780364,-1.559034 z m 2.906318,0 V 35.43262 h 0.914265 v 5.649092 q 0,0.413821 0.240576,0.65441 0.240576,0.240594 0.625523,0.240594 v 0.818009 q -1.780364,0 -1.780364,-1.559034 z m 3.782088,-5.639472 q 0.230968,0 0.394616,0.163606 0.173196,0.163599 0.173196,0.394567 0,0.240595 -0.173196,0.404194 -0.163648,0.163606 -0.394616,0.163606 -0.230968,0 -0.404164,-0.163606 -0.163587,-0.163599 -0.163587,-0.404194 0,-0.230968 0.163587,-0.394567 0.163587,-0.163606 0.404164,-0.163606 z m -0.500431,7.10227 v -4.388394 h -0.712121 v -0.769894 h 1.626385 v 5.158288 z m 2.17498,1.414682 0.500431,-0.731399 q 0.79878,0.529299 1.472407,0.529299 0.615914,0 0.971975,-0.211721 0.36573,-0.21172 0.36573,-0.529298 0,-0.635163 -0.904656,-0.635163 -0.153978,0 -0.558142,0.07699 -0.404225,0.07699 -0.635193,0.07699 -1.097068,0 -1.097068,-0.827636 0,-0.250215 0.259855,-0.452315 0.259793,-0.211721 0.635131,-0.307958 -1.087459,-0.510051 -1.087459,-1.770755 0,-0.808389 0.558142,-1.347314 0.567812,-0.538926 1.395479,-0.538926 0.760223,0 1.193335,0.317584 l 0.452266,-0.548552 0.596699,0.558173 -0.548534,0.413821 q 0.35606,0.461936 0.35606,1.193335 0,0.779514 -0.490822,1.308819 -0.481153,0.529299 -1.270325,0.606289 l -0.760285,0.07699 q -0.134701,0.01922 -0.365669,0.105864 -0.22136,0.08661 -0.22136,0.230968 0,0.202094 0.471544,0.202094 0.211752,0 0.644802,-0.07699 0.44272,-0.07699 0.654409,-0.07699 0.760286,0 1.183727,0.365699 0.423442,0.3657 0.423442,1.010489 0,0.712152 -0.635193,1.145214 -0.635132,0.442689 -1.616777,0.442689 -0.500431,0 -1.058573,-0.182847 -0.548534,-0.173226 -0.885378,-0.423443 z m 1.943951,-5.928181 q -0.481153,0 -0.779502,0.336825 -0.298349,0.336832 -0.298349,0.818015 0,0.538926 0.288741,0.894999 0.288679,0.346452 0.78911,0.346452 0.481214,0 0.750677,-0.336825 0.279071,-0.346453 0.279071,-0.904626 0,-0.481183 -0.298349,-0.818015 -0.288679,-0.336825 -0.731399,-0.336825 z m 7.53535,2.020971 H 31.36356 q 0,0.904625 0.490761,1.395429 0.442719,0.423442 1.126016,0.423442 0.78911,0 1.308819,-0.461937 l 0.384947,0.664037 q -0.211752,0.211721 -0.644802,0.365699 -0.548534,0.202094 -1.222221,0.202094 -0.971976,0 -1.655272,-0.66403 -0.750615,-0.721778 -0.750615,-1.953608 0,-1.270325 0.769893,-2.040218 0.692905,-0.692905 1.645602,-0.692905 1.097129,0 1.722652,0.625542 0.606307,0.596668 0.606307,1.578282 0,0.307957 -0.06738,0.558173 z m -2.223083,-1.992103 q -0.606245,0 -1.020079,0.394573 -0.394555,0.375321 -0.452328,0.933494 h 2.858215 q 0,-0.548547 -0.346452,-0.923873 -0.384947,-0.404194 -1.039356,-0.404194 z m 6.423808,4.484631 v -3.002586 q 0,-0.818009 -0.250185,-1.145214 -0.240576,-0.336831 -0.827666,-0.336831 -0.307958,0 -0.65441,0.192473 -0.336782,0.182853 -0.519647,0.461937 v 3.830221 h -0.914265 v -5.158288 h 0.625524 l 0.288741,0.664036 q 0.452328,-0.760273 1.472406,-0.760273 1.693766,0 1.693766,2.059466 v 3.195059 z m 2.545453,-4.43651 h -0.596637 v -0.721778 h 0.596637 V 36.46235 l 0.914264,-0.346452 v 1.424303 h 1.414695 v 0.721778 h -1.414695 v 2.559897 q 0,0.65441 0.211752,0.933493 0.221298,0.269463 0.712121,0.269463 0.346452,0 0.72179,-0.182847 l 0.134701,0.808388 q -0.56775,0.144352 -1.241438,0.144352 -0.615915,0 -1.039357,-0.452309 -0.413833,-0.461936 -0.413833,-1.154841 z m 11.928548,4.43651 -0.837213,-4.532746 -1.539787,4.628982 h -0.240638 l -1.587891,-4.628982 -0.817996,4.532746 h -0.914264 l 1.318427,-7.054148 h 0.44272 l 1.674488,5.148661 1.549457,-5.148661 h 0.43305 l 1.433911,7.054148 z m 2.478134,-5.158288 v 3.291295 q 0,1.193336 1.029748,1.193336 0.452267,0 0.827605,-0.259836 0.375339,-0.259843 0.500431,-0.606295 v -3.6185 h 0.914264 v 5.158288 H 58.58891 v -0.712152 q -0.153979,0.298337 -0.625523,0.558173 -0.461936,0.250215 -0.904656,0.250215 -0.846883,0 -1.299149,-0.481183 -0.44272,-0.490804 -0.44272,-1.385809 v -3.387532 z m 4.585672,3.69549 V 35.43262 h 0.914264 v 5.649092 q 0,0.413821 0.240576,0.65441 0.240577,0.240594 0.625523,0.240594 v 0.818009 q -1.780363,0 -1.780363,-1.559034 z M 63.98297,38.261979 H 63.386333 V 37.540201 H 63.98297 V 36.46235 l 0.914264,-0.346452 v 1.424303 h 1.414695 v 0.721778 h -1.414695 v 2.559897 q 0,0.65441 0.21169,0.933493 0.22136,0.269463 0.712183,0.269463 0.346452,0 0.72179,-0.182847 l 0.134701,0.808388 q -0.567812,0.144352 -1.241438,0.144352 -0.615915,0 -1.039357,-0.452309 Q 63.98297,41.88048 63.98297,41.187575 Z m 4.52316,-2.66576 q 0.23096,0 0.39455,0.163606 0.1732,0.163599 0.1732,0.394567 0,0.240595 -0.1732,0.404194 -0.16359,0.163606 -0.39455,0.163606 -0.23097,0 -0.40423,-0.163606 -0.163586,-0.163599 -0.163586,-0.404194 0,-0.230968 0.163586,-0.394567 0.16359,-0.163606 0.40423,-0.163606 z m -0.50044,7.10227 V 38.310095 H 67.293513 V 37.540201 H 68.9199 v 5.158288 z m 8.33407,0 v -3.262422 q 0,-1.222209 -1.05857,-1.222209 -0.32724,0 -0.61591,0.211721 -0.28875,0.2021 -0.39462,0.461936 v 3.810974 h -0.9142 v -3.666616 q 0,-0.375326 -0.28874,-0.596668 -0.28868,-0.221347 -0.76029,-0.221347 -0.26946,0 -0.58703,0.211721 -0.30796,0.21172 -0.43305,0.471563 v 3.801347 h -0.91426 v -5.158288 h 0.5967 l 0.29828,0.596668 q 0.52932,-0.692905 1.3281,-0.692905 1.10674,0 1.5494,0.692905 0.15398,-0.298331 0.56781,-0.490805 0.42344,-0.2021 0.8661,-0.2021 0.79878,0 1.23183,0.481184 0.44272,0.471563 0.44272,1.328066 v 3.445275 z m 1.87663,-2.588765 q 0,-1.193335 0.63514,-1.924734 0.6448,-0.741026 1.69376,-0.741026 1.10674,0 1.71305,0.712152 0.61591,0.702531 0.61591,1.953608 0,1.241451 -0.62552,1.963229 -0.62559,0.721772 -1.70344,0.721772 -1.09707,0 -1.71298,-0.721772 -0.61592,-0.731399 -0.61592,-1.963229 z m 0.96237,0 q 0,1.934355 1.36653,1.934355 0.6448,0 1.00086,-0.519678 0.36573,-0.519678 0.36573,-1.414677 0,-1.915113 -1.36659,-1.915113 -0.62552,0 -1.00086,0.510057 -0.36567,0.510052 -0.36567,1.405056 z m 7.9251,2.579144 v -0.375326 q -0.47154,0.481183 -1.38581,0.481183 -0.96236,0 -1.56867,-0.692904 -0.59664,-0.702525 -0.59664,-1.857365 0,-1.154841 0.69291,-1.972856 0.6929,-0.827636 1.6456,-0.827636 0.79878,0 1.21261,0.375326 v -2.38667 h 0.91427 v 7.256248 z m 0,-3.955332 q -0.34645,-0.519678 -0.94315,-0.519678 -0.74101,0 -1.19333,0.548552 -0.45227,0.548546 -0.45227,1.395429 0,1.866993 1.69377,1.866993 0.21169,0 0.51004,-0.134732 0.30795,-0.144352 0.38494,-0.29833 z m 5.13421,3.368285 q -0.54854,0.692904 -1.67449,0.692904 -0.60631,0 -1.05863,-0.442689 -0.44266,-0.442688 -0.44266,-1.097098 0,-0.779514 0.68323,-1.31844 0.69291,-0.548552 1.75154,-0.548552 0.28868,0 0.65441,0.125111 0,-1.251078 -1.11634,-1.251078 -0.8565,0 -1.31843,0.461937 l -0.38495,-0.760274 q 0.25979,-0.21172 0.72173,-0.365699 0.46194,-0.153979 0.87577,-0.153979 1.12595,0 1.62638,0.510058 0.51011,0.510051 0.51011,1.626397 v 1.847745 q 0,0.673657 0.40416,0.904625 v 0.461936 q -0.55814,0 -0.83728,-0.163599 -0.26946,-0.163605 -0.39455,-0.529305 z m -0.0866,-1.934355 q -0.43305,-0.09624 -0.60631,-0.09624 -0.6929,0 -1.13556,0.356072 -0.43311,0.356079 -0.43311,0.837263 0,0.808388 0.95276,0.808388 0.6929,0 1.22222,-0.664036 z m 2.42516,1.068225 V 35.43262 h 0.91427 v 5.649092 q 0,0.413821 0.24058,0.65441 0.24057,0.240594 0.62552,0.240594 v 0.818009 q -1.78036,0 -1.78036,-1.559034 z"
     fill-rule="nonzero"
     id="path36"
     style="fill:#b90320;fill-opacity:1;stroke-width:0.615915" />
  <path
     fill="#ff0000"
     d="m 19.485517,54.620268 h -0.481153 l -2.627309,-7.150391 h 1.068243 l 1.809251,5.196783 1.751539,-5.196783 h 1.029686 z m 4.032333,-7.198506 q 0.230968,0 0.394555,0.163599 0.173257,0.163606 0.173257,0.394574 0,0.240588 -0.173257,0.404194 -0.163587,0.163599 -0.394555,0.163599 -0.230968,0 -0.404225,-0.163599 -0.163587,-0.163606 -0.163587,-0.404194 0,-0.230968 0.163587,-0.394574 0.163649,-0.163599 0.404225,-0.163599 z m -0.500431,7.102269 v -4.388394 h -0.712182 v -0.769894 h 1.626447 v 5.158288 z m 2.03061,-0.307957 0.317566,-0.866131 q 0.769894,0.500431 1.23183,0.500431 0.846883,0 0.846883,-0.712151 0,-0.510058 -0.817997,-0.875758 -0.625584,-0.28871 -0.846883,-0.433062 -0.221359,-0.153978 -0.384946,-0.346452 -0.153979,-0.192473 -0.240638,-0.404194 -0.07699,-0.211721 -0.07699,-0.461936 0,-0.635163 0.461936,-0.991242 0.461937,-0.356072 1.212614,-0.356072 0.558142,0 1.414695,0.356072 l -0.259855,0.846884 Q 27.367319,50.0394 26.818785,50.0394 q -0.327236,0 -0.558204,0.153979 -0.22136,0.153979 -0.22136,0.394568 0,0.49081 0.567812,0.750646 l 0.65441,0.298337 q 0.596698,0.269463 0.866161,0.625535 0.279071,0.346453 0.279071,0.875758 0,0.692904 -0.490822,1.087471 -0.481153,0.394574 -1.337706,0.394574 -0.817997,0 -1.530118,-0.404194 z m 5.268906,-6.794312 q 0.230969,0 0.394617,0.163599 0.173195,0.163606 0.173195,0.394574 0,0.240588 -0.173195,0.404194 -0.163648,0.163599 -0.394617,0.163599 -0.230968,0 -0.404163,-0.163599 -0.163587,-0.163606 -0.163587,-0.404194 0,-0.230968 0.163587,-0.394574 0.163587,-0.163599 0.404163,-0.163599 z m -0.50043,7.102269 v -4.388394 h -0.712121 v -0.769894 h 1.626385 v 5.158288 z m 2.03061,-2.58877 q 0,-1.193336 0.635193,-1.924735 0.644739,-0.741019 1.693766,-0.741019 1.106676,0 1.712983,0.712151 0.615914,0.702525 0.615914,1.953603 0,1.241456 -0.625523,1.963228 -0.625523,0.721779 -1.703374,0.721779 -1.097129,0 -1.713044,-0.721779 -0.615915,-0.731399 -0.615915,-1.963228 z m 0.962367,0 q 0,1.934361 1.366592,1.934361 0.64474,0 1.000862,-0.519679 0.365668,-0.519678 0.365668,-1.414682 0,-1.915108 -1.36653,-1.915108 -0.625585,0 -1.000862,0.510052 -0.36573,0.510057 -0.36573,1.405056 z m 7.828895,2.58877 v -3.002585 q 0,-0.818015 -0.250247,-1.14522 -0.240576,-0.336826 -0.827604,-0.336826 -0.307958,0 -0.65441,0.192474 -0.336844,0.182846 -0.519709,0.461936 v 3.830221 h -0.914264 v -5.158288 h 0.625585 l 0.288679,0.664031 q 0.452328,-0.760267 1.472406,-0.760267 1.693766,0 1.693766,2.059465 v 3.195059 z m 8.714211,0 -0.481214,-1.491672 h -2.627247 l -0.519648,1.491672 h -1.077851 l 2.867823,-7.150391 h 0.250247 l 2.656133,7.150391 z m -1.761147,-5.302646 -1.08746,3.108449 h 2.088321 z m 6.669188,5.302646 v -3.002585 q 0,-0.818015 -0.250184,-1.14522 -0.240577,-0.336826 -0.827667,-0.336826 -0.307957,0 -0.654409,0.192474 -0.336783,0.182846 -0.519648,0.461936 v 3.830221 h -0.914264 v -5.158288 h 0.625523 l 0.288741,0.664031 q 0.452328,-0.760267 1.472406,-0.760267 1.693767,0 1.693767,2.059465 v 3.195059 z m 5.124659,-0.596667 q -0.548595,0.692904 -1.674549,0.692904 -0.606307,0 -1.058573,-0.442689 -0.44272,-0.442689 -0.44272,-1.097099 0,-0.77952 0.683296,-1.318446 0.692904,-0.548546 1.751477,-0.548546 0.288741,0 0.65441,0.125105 0,-1.251077 -1.116346,-1.251077 -0.856491,0 -1.318427,0.461936 l -0.384947,-0.760267 q 0.259854,-0.211721 0.72179,-0.3657 0.461937,-0.153978 0.87577,-0.153978 1.125954,0 1.626385,0.510051 0.510039,0.510058 0.510039,1.626404 v 1.847745 q 0,0.673657 0.404225,0.904625 v 0.461936 q -0.558204,0 -0.837275,-0.163606 -0.269462,-0.163599 -0.394555,-0.529298 z m -0.08666,-1.934361 q -0.43305,-0.09624 -0.606245,-0.09624 -0.692904,0 -1.135624,0.356079 -0.43305,0.356073 -0.43305,0.837256 0,0.808388 0.952759,0.808388 0.692904,0 1.22216,-0.66403 z m 2.425165,1.06823 v -5.803077 h 0.914264 v 5.649098 q 0,0.413815 0.240577,0.65441 0.240638,0.240589 0.625584,0.240589 v 0.818015 q -1.780425,0 -1.780425,-1.559035 z m 4.802227,2.338549 q -0.173195,0.49081 -0.750615,0.818015 -0.567812,0.327205 -1.270325,0.327205 v -0.818015 q 0.577421,0 0.981584,-0.269463 0.413833,-0.259836 0.413833,-0.644783 0,-0.433068 -0.153979,-0.837262 -0.14437,-0.413815 -0.384946,-1.020109 l -1.395417,-3.589627 h 0.93348 l 1.52051,3.9842 1.356983,-3.9842 h 0.933482 z m 2.55993,-1.183708 0.31756,-0.866131 q 0.7699,0.500431 1.23183,0.500431 0.84689,0 0.84689,-0.712151 0,-0.510058 -0.818,-0.875758 -0.62558,-0.28871 -0.84688,-0.433062 -0.22136,-0.153978 -0.38495,-0.346452 -0.15398,-0.192473 -0.24064,-0.404194 -0.077,-0.211721 -0.077,-0.461936 0,-0.635163 0.46194,-0.991242 0.46193,-0.356072 1.21261,-0.356072 0.55814,0 1.4147,0.356072 l -0.25986,0.846884 Q 71.40524,50.0394 70.8567,50.0394 q -0.32723,0 -0.5582,0.153979 -0.22136,0.153979 -0.22136,0.394568 0,0.49081 0.56781,0.750646 l 0.65441,0.298337 q 0.5967,0.269463 0.86616,0.625535 0.27907,0.346453 0.27907,0.875758 0,0.692904 -0.49082,1.087471 -0.48115,0.394574 -1.3377,0.394574 -0.818,0 -1.53012,-0.404194 z m 5.2689,-6.794312 q 0.23097,0 0.39462,0.163599 0.1732,0.163606 0.1732,0.394574 0,0.240588 -0.1732,0.404194 -0.16365,0.163599 -0.39462,0.163599 -0.23096,0 -0.40416,-0.163599 -0.16359,-0.163606 -0.16359,-0.404194 0,-0.230968 0.16359,-0.394574 0.16359,-0.163599 0.40416,-0.163599 z m -0.50043,7.102269 V 50.135637 H 73.1423 v -0.769894 h 1.62639 v 5.158288 z m 2.03061,-0.307957 0.31757,-0.866131 q 0.76989,0.500431 1.23183,0.500431 0.84688,0 0.84688,-0.712151 0,-0.510058 -0.81799,-0.875758 -0.62553,-0.28871 -0.84689,-0.433062 -0.22136,-0.153978 -0.38494,-0.346452 -0.15398,-0.192473 -0.24058,-0.404194 -0.077,-0.211721 -0.077,-0.461936 0,-0.635163 0.46194,-0.991242 0.46193,-0.356072 1.21255,-0.356072 0.5582,0 1.41469,0.356072 l -0.25985,0.846884 Q 78.20431,50.0394 77.65578,50.0394 q -0.32717,0 -0.55814,0.153979 -0.22136,0.153979 -0.22136,0.394568 0,0.49081 0.56781,0.750646 l 0.65441,0.298337 q 0.59664,0.269463 0.8661,0.625535 0.27907,0.346453 0.27907,0.875758 0,0.692904 -0.49076,1.087471 -0.48122,0.394574 -1.33771,0.394574 -0.81799,0 -1.53018,-0.404194 z"
     fill-rule="nonzero"
     id="path44"
     style="fill:#b90320;fill-opacity:1;stroke-width:0.615915" />
</svg>
